# xmcd CD database file
#
# Track frame offsets:
#	150
#	17035
#	43129
#	68938
#	103730
#	140496
#	160307
#	182655
#	201350
#	235562
#
# Disc length: 3490 seconds
#
# Revision: 0
# Processed by: cddbd v1.5.2PL0 Copyright (c) Steve Scherf et al.
# Submitted via: CDex 1.70beta2
#
DISCID=8a0da00a
DTITLE=The Anthony Wilson Trio - Jack Of Hearts
DYEAR=2009
DGENRE=Jazz
TTITLE0=Mezcal
TTITLE1=Jack Of Hearts
TTITLE2=Hawkeyes
TTITLE3=Carnegie Blues
TTITLE4=Theme From "Chinatown"
TTITLE5=Vida Perdida Acabou
TTITLE6=Orange Crate Art
TTITLE7=Harajuku
TTITLE8=Zweet Zursday
TTITLE9=Homecoming
EXTD=YEAR: 2009
EXTT0=
EXTT1=
EXTT2=
EXTT3=
EXTT4=
EXTT5=
EXTT6=
EXTT7=
EXTT8=
EXTT9=
PLAYORDER=
